{"asset":{"version":"2.0","generator":"THREE.GLTFExporter"},"scenes":[{"name":"default","nodes":[0,1]}],"scene":0,"nodes":[{"matrix":[1,0,0,0,0,1,0,0,0,0,1,0,0.375,3.5,0,1],"name":"door","extras":{"data":{"name":"door","points":[{"name":"Origin","pos":{"x":0,"y":0,"z":0}}],"billboard":{"enabled":false,"y":false},"directional":{"enabled":false,"mode":"cameraAngle","angles":[]},"custom":[],"instance":{"name":"door","uuid":"AE128A4C-C315-4B93-ABDB-4FF44ECF0178","parent":null,"pos":{"x":0.375,"y":3.5,"z":0},"rot":{"x":0,"y":0,"z":0,"order":"XYZ"},"sca":{"x":1,"y":1,"z":1},"custom":[]}}},"mesh":0},{"matrix":[2.220446049250313e-16,1.2246467991473532e-16,1,0,0,1,-1.2246467991473532e-16,0,-1,2.465190328815662e-32,2.220446049250313e-16,0,2,0.875,0,1],"name":"frame","extras":{"data":{"name":"frame","points":[{"name":"Origin","pos":{"x":0,"y":0,"z":0}}],"billboard":{"enabled":false,"y":false},"directional":{"enabled":false,"mode":"cameraAngle","angles":[]},"custom":[],"instance":{"name":"frame","uuid":"0DE8836E-1AC0-407B-91E1-1F3C0DA61B24","parent":null,"pos":{"x":2,"y":0.875,"z":0},"rot":{"x":-1.2246467991473532e-16,"y":-1.5707963267948966,"z":0,"order":"XYZ"},"sca":{"x":1,"y":1,"z":1},"custom":[]}}},"mesh":1}],"bufferViews":[{"buffer":0,"byteOffset":0,"byteLength":13752,"target":34962,"byteStride":12},{"buffer":0,"byteOffset":13752,"byteLength":13752,"target":34962,"byteStride":12},{"buffer":0,"byteOffset":27504,"byteLength":9168,"target":34962,"byteStride":8},{"buffer":0,"byteOffset":36672,"byteLength":2292,"target":34963},{"buffer":0,"byteOffset":38964,"byteLength":39744,"target":34962,"byteStride":12},{"buffer":0,"byteOffset":78708,"byteLength":39744,"target":34962,"byteStride":12},{"buffer":0,"byteOffset":118452,"byteLength":26496,"target":34962,"byteStride":8},{"buffer":0,"byteOffset":144948,"byteLength":6624,"target":34963}],"buffers":[{"byteLength":151572,"uri":"data:application/octet-stream;base64,"}],"accessors":[{"bufferView":0,"componentType":5126,"count":1146,"max":[1.625,0.5,0.125],"min":[-0.375,-3.5,-0.25],"type":"VEC3"},{"bufferView":1,"componentType":5126,"count":1146,"max":[1,1,1],"min":[-1,-1,-1],"type":"VEC3"},{"bufferView":2,"componentType":5126,"count":1146,"max":[1,0.875],"min":[0,0.328125],"type":"VEC2"},{"bufferView":3,"componentType":5123,"count":1146,"max":[1145],"min":[0],"type":"SCALAR"},{"bufferView":4,"componentType":5126,"count":3312,"max":[0.125,3.25,2.125],"min":[-1.1102230246251565e-16,-0.875,-0.125],"type":"VEC3"},{"bufferView":5,"componentType":5126,"count":3312,"max":[1,1,1],"min":[-1,-1,-1],"type":"VEC3"},{"bufferView":6,"componentType":5126,"count":3312,"max":[0.046875,0.953125],"min":[0.015625,0.640625],"type":"VEC2"},{"bufferView":7,"componentType":5123,"count":3312,"max":[3311],"min":[0],"type":"SCALAR"}],"materials":[{"pbrMetallicRoughness":{"metallicFactor":0,"roughnessFactor":1,"baseColorTexture":{"index":0}},"alphaMode":"MASK","alphaCutoff":0.01,"name":"texture_1"},{"pbrMetallicRoughness":{"metallicFactor":0,"roughnessFactor":1,"baseColorTexture":{"index":1}},"alphaMode":"MASK","alphaCutoff":0.01,"name":"texture_2"}],"textures":[{"sampler":0,"source":0,"name":"texture_1"},{"sampler":1,"source":1,"name":"texture_2"}],"samplers":[{"magFilter":9728,"minFilter":9728,"wrapS":33071,"wrapT":33071},{"magFilter":9728,"minFilter":9728,"wrapS":33071,"wrapT":33071}],"images":[{"mimeType":"image/png","uri":"data:image/png;base64,"},{"mimeType":"image/png","uri":"data:image/png;base64,"}],"meshes":[{"primitives":[{"mode":4,"attributes":{"POSITION":0,"NORMAL":1,"TEXCOORD_0":2},"indices":3,"material":0}]},{"primitives":[{"mode":4,"attributes":{"POSITION":4,"NORMAL":5,"TEXCOORD_0":6},"indices":7,"material":1}]}]}